<?xml version="1.0" ?><!DOCTYPE svg  PUBLIC '-//W3C//DTD SVG 1.1//EN'  'http://www.w3.org/Graphics/SVG/1.1/DTD/svg11.dtd'><svg enable-background="new 0 0 512 512" id="Layer_1" version="1.1" viewBox="0 0 512 512" xml:space="preserve" xmlns="http://www.w3.org/2000/svg" xmlns:xlink="http://www.w3.org/1999/xlink"><g><path d="   M431.6,301.8h51.3c7.2,0,13.1,5.9,13.1,13.1v146.5c0,7.2-5.9,13.1-13.1,13.1H112.1c-7.2,0-13.1-5.9-13.1-13.1V314.9   c0-7.2,5.9-13.1,13.1-13.1h67.1" fill="none" id="XMLID_399_" stroke="#000000" stroke-linecap="round" stroke-linejoin="round" stroke-miterlimit="10" stroke-width="10"/><path d="   M99.1,446.7h-70c-7.2,0-13.1-5.9-13.1-13.1v-90.9c0-7.2,5.9-13.1,13.1-13.1h70" fill="none" id="XMLID_371_" stroke="#000000" stroke-linecap="round" stroke-linejoin="round" stroke-miterlimit="10" stroke-width="10"/><g id="XMLID_400_"><path d="    M81.4,407.9v15.8c0,2.8-2.2,5-5,5h-8.3c-2.8,0-5-2.2-5-5v-15.8c0-2.8,2.2-5,5-5h8.3C79.2,402.9,81.4,405.1,81.4,407.9z" fill="none" id="XMLID_402_" stroke="#000000" stroke-linecap="round" stroke-linejoin="round" stroke-miterlimit="10" stroke-width="10"/><path d="    M81.4,352.7v15.8c0,2.8-2.2,5-5,5h-8.3c-2.8,0-5-2.2-5-5v-15.8c0-2.8,2.2-5,5-5h8.3C79.2,347.7,81.4,349.9,81.4,352.7z" fill="none" id="XMLID_401_" stroke="#000000" stroke-linecap="round" stroke-linejoin="round" stroke-miterlimit="10" stroke-width="10"/></g><g id="XMLID_396_"><path d="    M458.8,447.7L458.8,447.7c-32.9,34.6-87.6,35.9-122.1,3L37.6,166.2c-5.2-4.9-5.4-13.1-0.5-18.3L138.3,41.4    c4.9-5.2,13.1-5.4,18.3-0.5l299.1,284.6C490.4,358.5,491.7,413.2,458.8,447.7z" fill="none" id="XMLID_398_" stroke="#000000" stroke-linecap="round" stroke-linejoin="round" stroke-miterlimit="10" stroke-width="10"/><circle cx="394.4" cy="386.4" fill="none" id="XMLID_397_" r="59.2" stroke="#000000" stroke-linecap="round" stroke-linejoin="round" stroke-miterlimit="10" stroke-width="10"/></g></g></svg>